solid Prop
facet normal -0 -0 -1
outer loop
vertex 0 0 0
vertex 0 1000 0
vertex 1000 0 0
endloop
endfacet
facet normal 0 0 -1
outer loop
vertex 0 1000 0
vertex 1000 1000 0
vertex 1000 0 0
endloop
endfacet
facet normal -1 -0 -0
outer loop
vertex 0 0 0
vertex 0 0 1000
vertex 0 1000 0
endloop
endfacet
facet normal -1 0 0
outer loop
vertex 0 0 1000
vertex 0 1000 1000
vertex 0 1000 0
endloop
endfacet
facet normal -0 -1 -0
outer loop
vertex 0 0 0
vertex 1000 0 0
vertex 1000 0 1000
endloop
endfacet
facet normal 0 -1 -0
outer loop
vertex 0 0 0
vertex 1000 0 1000
vertex 0 0 1000
endloop
endfacet
facet normal -0 0 1
outer loop
vertex 0 0 1000
vertex 1000 1000 1000
vertex 0 1000 1000
endloop
endfacet
facet normal 0 0 1
outer loop
vertex 0 0 1000
vertex 1000 0 1000
vertex 1000 1000 1000
endloop
endfacet
facet normal 0 1 0
outer loop
vertex 0 1000 0
vertex 0 1000 1000
vertex 1000 1000 1000
endloop
endfacet
facet normal 0 1 0
outer loop
vertex 1000 1000 1000
vertex 1000 1000 0
vertex 0 1000 0
endloop
endfacet
facet normal 0.3141 -0.9181 0.2416
outer loop
vertex 1100 500 678
vertex 1100 440 450
vertex 1260 500 470
endloop
endfacet
facet normal 0.3141 0.9181 0.2416
outer loop
vertex 1100 500 678
vertex 1260 500 470
vertex 1100 560 450
endloop
endfacet
facet normal 0.1240 0.0000 -0.9922
outer loop
vertex 1260 500 470
vertex 1100 440 450
vertex 1100 560 450
endloop
endfacet
facet normal 1 0.0000 0.0000
outer loop
vertex 1100 560 450
vertex 1100 440 450
vertex 1100 500 250
endloop
endfacet
facet normal 1 0.0000 0.0000
outer loop
vertex 1100 440 450
vertex 1100 320 255
vertex 1100 500 250
endloop
endfacet
facet normal 1 0.0000 0.0000
outer loop
vertex 1100 560 450
vertex 1100 500 250
vertex 1100 680 255
endloop
endfacet
facet normal 0.9662 -0.1172 -0.2294
outer loop
vertex 1080 305 700
vertex 1130 400 862
vertex 1110 200 880
endloop
endfacet
facet normal 0.9662 0.1172 -0.2294
outer loop
vertex 1080 695 700
vertex 1110 800 880
vertex 1130 600 862
endloop
endfacet
facet normal 0.9869 0.0000 -0.1609
outer loop
vertex 1100 500 678
vertex 1130 600 862
vertex 1130 400 862
endloop
endfacet
facet normal 0.9947 -0.0990 0.0260
outer loop
vertex 1100 500 678
vertex 1080 305 700
vertex 1100 440 450
endloop
endfacet
facet normal 0.9947 0.0990 0.0260
outer loop
vertex 1100 500 678
vertex 1100 560 450
vertex 1080 695 700
endloop
endfacet
facet normal 0.9663 -0.1245 -0.2252
outer loop
vertex 1100 500 678
vertex 1130 400 862
vertex 1080 305 700
endloop
endfacet
facet normal 0.9663 0.1245 -0.2252
outer loop
vertex 1100 500 678
vertex 1080 695 700
vertex 1130 600 862
endloop
endfacet
facet normal 0.9889 0.0824 0.1236
outer loop
vertex 1100 440 450
vertex 1080 305 700
vertex 1100 275 560
endloop
endfacet
facet normal 0.9209 -0.3326 0.2028
outer loop
vertex 1100 275 560
vertex 1080 305 700
vertex 1050 100 500
endloop
endfacet
facet normal 0.9642 -0.2622 -0.0386
outer loop
vertex 1100 320 255
vertex 1100 275 560
vertex 1050 100 500
endloop
endfacet
facet normal 1 0.0000 0.0000
outer loop
vertex 1100 440 450
vertex 1100 275 560
vertex 1100 320 255
endloop
endfacet
facet normal 0.8637 -0.5019 -0.0448
outer loop
vertex 1110 200 880
vertex 1000 0 1000
vertex 1080 160 750
endloop
endfacet
facet normal 0.9765 -0.0702 -0.2037
outer loop
vertex 1080 160 750
vertex 1080 305 700
vertex 1110 200 880
endloop
endfacet
facet normal 0.9932 -0.0379 -0.1100
outer loop
vertex 1050 100 500
vertex 1080 305 700
vertex 1080 160 750
endloop
endfacet
facet normal 0.7497 -0.0154 0.6615
outer loop
vertex 1000 0 1000
vertex 1110 200 880
vertex 1130 400 862
endloop
endfacet
facet normal 0.8830 -0.1315 0.4505
outer loop
vertex 1000 0 1000
vertex 1130 400 862
vertex 1100 500 950
endloop
endfacet
facet normal 0.9966 -0.0049 0.0824
outer loop
vertex 1100 560 450
vertex 1100 725 460
vertex 1080 695 700
endloop
endfacet
facet normal 1 -0.0000 0.0000
outer loop
vertex 1100 560 450
vertex 1100 680 255
vertex 1100 725 460
endloop
endfacet
facet normal 0.9619 0.2494 0.1113
outer loop
vertex 1080 695 700
vertex 1100 725 460
vertex 1050 900 500
endloop
endfacet
facet normal 0.9557 0.2874 -0.0631
outer loop
vertex 1100 725 460
vertex 1100 680 255
vertex 1050 900 500
endloop
endfacet
facet normal 0.9932 0.0379 -0.1100
outer loop
vertex 1080 695 700
vertex 1050 900 500
vertex 1080 840 750
endloop
endfacet
facet normal 0.9765 0.0702 -0.2037
outer loop
vertex 1110 800 880
vertex 1080 695 700
vertex 1080 840 750
endloop
endfacet
facet normal 0.8637 0.5019 -0.0448
outer loop
vertex 1110 800 880
vertex 1080 840 750
vertex 1000 1000 1000
endloop
endfacet
facet normal 0.7497 0.0154 0.6615
outer loop
vertex 1000 1000 1000
vertex 1130 600 862
vertex 1110 800 880
endloop
endfacet
facet normal 0.8830 0.1315 0.4505
outer loop
vertex 1000 1000 1000
vertex 1100 500 950
vertex 1130 600 862
endloop
endfacet
facet normal 0.9465 0.0000 0.3226
outer loop
vertex 1100 500 950
vertex 1130 400 862
vertex 1130 600 862
endloop
endfacet
facet normal 0.9486 -0.0087 -0.3162
outer loop
vertex 1100 500 250
vertex 1100 320 255
vertex 1050 500 100
endloop
endfacet
facet normal 0.9486 0.0087 -0.3162
outer loop
vertex 1100 500 250
vertex 1050 500 100
vertex 1100 680 255
endloop
endfacet
facet normal 0.9314 -0.0514 -0.3602
outer loop
vertex 1100 320 255
vertex 1050 150 150
vertex 1050 500 100
endloop
endfacet
facet normal 0.9314 0.0514 -0.3602
outer loop
vertex 1100 680 255
vertex 1050 500 100
vertex 1050 850 150
endloop
endfacet
facet normal 0.9647 -0.2607 -0.0372
outer loop
vertex 1100 320 255
vertex 1050 100 500
vertex 1050 150 150
endloop
endfacet
facet normal 0.9647 0.2607 -0.0372
outer loop
vertex 1100 680 255
vertex 1050 850 150
vertex 1050 900 500
endloop
endfacet
facet normal 0.8944 -0.4472 0.0000
outer loop
vertex 1000 0 0
vertex 1050 100 500
vertex 1000 0 1000
endloop
endfacet
facet normal 0.8944 -0.4472 0
outer loop
vertex 1000 0 0
vertex 1050 100 500
vertex 1000 0 1000
endloop
endfacet
facet normal 0.8944 0.4472 0
outer loop
vertex 1000 1000 0
vertex 1000 1000 1000
vertex 1050 900 500
endloop
endfacet
facet normal 0.4472 0 0.8944
outer loop
vertex 1000 0 1000
vertex 1100 500 950
vertex 1000 1000 1000
endloop
endfacet
facet normal 0.8944 0 -0.4472
outer loop
vertex 1000 0 0
vertex 1000 1000 0
vertex 1050 500 100
endloop
endfacet
facet normal 0.8944 -0.4472 0
outer loop
vertex 1000 0 1000
vertex 1050 100 500
vertex 1080 160 750
endloop
endfacet
facet normal 0.8944 0.4472 0
outer loop
vertex 1080 840 750
vertex 1050 900 500
vertex 1000 1000 1000
endloop
endfacet
facet normal 0.9592 -0.0400 -0.2798
outer loop
vertex 1000 0 0
vertex 1050 500 100
vertex 1050 150 150
endloop
endfacet
facet normal 0.9592 0.0400 -0.2798
outer loop
vertex 1000 1000 0
vertex 1050 850 150
vertex 1050 500 100
endloop
endfacet
facet normal 0.9592 -0.2798 -0.0400
outer loop
vertex 1000 0 0
vertex 1050 150 150
vertex 1050 100 500
endloop
endfacet
facet normal 0.9592 0.2798 -0.0400
outer loop
vertex 1050 850 150
vertex 1000 1000 0
vertex 1050 900 500
endloop
endfacet
endsolid Prop
